# xmcd
#
# Track frame offsets:
#	150
#	11707
#	28978
#	50396
#	65413
#	85581
#	101910
#	122483
#	139310
#	155531
#	167179
#	177174
#	195914
#	212929
#	225509
#	240389
#	256066
#	280918
#	298149
#	312625
#
# Disc length: 4556 seconds
#
# Revision: 0
# Processed by: cddbd v1.5.2PL0 Copyright (c) Steve Scherf et al.
# Submitted via: audiograbber 1.83.01
#
DISCID=1f11ca14
DTITLE=Various Artist - Country Singles For Radio
DYEAR=2000
DGENRE=Country
TTITLE0=Magnificent Seven - Lucky Lips
TTITLE1=George Strait - Go On
TTITLE2=Carter and Carter - Dance Away The Night
TTITLE3=Craig Byrne - Kissing Distance
TTITLE4=Kasey Chambers - I Still Pray
TTITLE5=Grant Richardson - Getting Back To The Country
TTITLE6=David Reynolds - It's Just Because
TTITLE7=Chris Webbe - Dreamtime
TTITLE8=Brett Goodwin - Bourbon Cowboy
TTITLE9=Donella Plane - Australian Summer
TTITLE10=Glenn Jones - The Cunnamulla Feller
TTITLE11=Phill Davies - Droving Balladeer
TTITLE12=Tracy Coster - The Memories We Made
TTITLE13=Bob Easter - Land Of The Blue Sky
TTITLE14=Raebekah Roycroft - That's What You Say Now
TTITLE15=Dan Mureau - Leavin' Made Easy
TTITLE16=The Naked Poets - Mammogram
TTITLE17=Shirley Myers - I'm Missing You
TTITLE18=Pru Clearwater - Kinda Exactly Like You
TTITLE19=The Bushwackers - Orange Blossom Special
EXTD=
EXTT0=
EXTT1=
EXTT2=
EXTT3=
EXTT4=
EXTT5=
EXTT6=
EXTT7=
EXTT8=
EXTT9=
EXTT10=
EXTT11=
EXTT12=
EXTT13=
EXTT14=
EXTT15=
EXTT16=
EXTT17=
EXTT18=
EXTT19=
PLAYORDER=
